<svg version="1.1" xmlns="http://www.w3.org/2000/svg" x="0px" y="0px" fill="#666">
	<path d="M7,19.1H3.3c-0.3,0-0.5-0.2-0.5-0.5v-6.6H0.5c-0.3,0-0.5-0.2-0.5-0.5V7.7c0-0.3,0.2-0.5,0.5-0.5h2.2V5
	c0-1.3,0.5-2.6,1.5-3.6c1-1,2.3-1.5,3.6-1.5h2.8c0.3,0,0.5,0.2,0.5,0.5v3.6c0,0.3-0.2,0.5-0.5,0.5H7.9c-0.1,0-0.2,0-0.3,0.1
	C7.6,4.9,7.5,5,7.5,5v2.1h3.1c0.2,0,0.3,0.1,0.4,0.2c0.1,0.1,0.1,0.3,0.1,0.5l-0.9,3.6c-0.1,0.2-0.3,0.4-0.5,0.4H7.5v6.6
	C7.5,18.8,7.3,19.1,7,19.1z M3.8,18h2.6v-6.6c0-0.3,0.2-0.5,0.5-0.5h2.3l0.6-2.5H7C6.7,8.3,6.4,8,6.4,7.7V5c0-0.4,0.2-0.8,0.4-1
	c0.3-0.3,0.6-0.4,1-0.4h2.2V1.1H7.9C6.8,1.1,5.8,1.5,5,2.3C4.3,3,3.8,4,3.8,5v2.7c0,0.3-0.2,0.5-0.5,0.5H1.1v2.5h2.2
	c0.3,0,0.5,0.2,0.5,0.5V18z"/>
</svg>
