<svg xmlns="http://www.w3.org/2000/svg" viewBox="0 0 19.1 19.9" fill="#000000">
  <path d="M17.1 9.4H9v1.2h8.1l-2 2.1.9.9 3-3.1c.1-.1.1-.3.1-.4 0-.2-.1-.3-.1-.4l-3-3.1-.9.9 2 1.9zm-9.3 10v-6.2c0-.2-.1-.3-.2-.4s-.2-.2-.4-.2H3c0 .3.1.6.3.8.2.2.5.4.8.4h2.4v5H3c-.2 0-.5 0-.7-.1-.2-.1-.4-.2-.6-.4s-.3-.3-.4-.5c-.1-.2-.2-.4-.2-.7v-14c0-.5.2-.9.5-1.2.3-.3.7-.5 1.2-.6h3.7v5H4.2c-.3 0-.6.1-.8.4-.2.2-.3.5-.3.8h4.2c.1 0 .3-.1.4-.2.1-.1.2-.3.2-.4V.6c0-.2-.1-.3-.3-.4-.1-.1-.3-.2-.4-.2H3c-.4 0-.8.1-1.1.2-.4.1-.7.3-1 .6-.3.3-.5.6-.7 1-.1.3-.2.7-.2 1.1v13.9c0 .4 0 .8.2 1.2.1.4.3.7.6 1 .3.3.6.5.9.7.4.2.7.2 1.1.2h4.4c.1 0 .3 0 .5-.2 0-.1.1-.2.1-.3z"/>
</svg>
